<?xml version="1.0" encoding="UTF-8"?>
<svg id="Capa_1" data-name="Capa 1" xmlns="http://www.w3.org/2000/svg" viewBox="0 0 604.18 403.84">
  <path d="m186.28,162.05v27.49c-2.47-.46-4.7-.69-6.7-.69-11.24,0-20.02,3.27-26.33,9.82-6.32,6.55-9.47,15.98-9.47,28.29v59.82h-28.87v-123.34h27.49v18.02c8.32-12.93,22.94-19.4,43.89-19.4Z"/>
  <path d="m237.1,114.93h33.95l-40.19,31.64h-24.95l31.18-31.64Zm-26.33,48.51h28.87v123.34h-28.87v-123.34Z"/>
  <path d="m393.01,234.34h-96.78c1.69,9.09,6.12,16.28,13.28,21.6,7.16,5.31,16.05,7.97,26.68,7.97,13.55,0,24.71-4.46,33.49-13.4l15.48,17.79c-5.54,6.62-12.55,11.63-21.02,15.01-8.47,3.39-18.02,5.08-28.64,5.08-13.55,0-25.49-2.69-35.8-8.08-10.32-5.39-18.29-12.9-23.91-22.52-5.62-9.62-8.43-20.52-8.43-32.68s2.73-22.83,8.2-32.45c5.46-9.62,13.05-17.13,22.75-22.52,9.7-5.39,20.63-8.08,32.8-8.08s22.75,2.66,32.22,7.97c9.47,5.31,16.86,12.78,22.17,22.4,5.31,9.63,7.97,20.75,7.97,33.38,0,2-.16,4.85-.46,8.55Zm-85.35-41c-6.39,5.47-10.28,12.74-11.66,21.83h69.99c-1.23-8.93-5.01-16.17-11.32-21.71-6.32-5.54-14.17-8.32-23.56-8.32s-17.06,2.74-23.44,8.2Z"/>
  <path d="m489.26,209.27h-25.67v25.07h-23.39v-25.07h-25.82v-22.18h25.82v-25.06h23.39v25.06h25.67v22.18Z"/>
</svg>