<?xml version="1.0" encoding="UTF-8"?>
<svg id="Capa_1" data-name="Capa 1" xmlns="http://www.w3.org/2000/svg" viewBox="0 0 401.99 403.84">
  <defs>
    <style>
      .cls-1 {
        fill: #62b55a;
      }
    </style>
  </defs>
  <path class="cls-1" d="m266.86,114.77h-131.73c-11.17,0-20.22,9.05-20.22,20.22v131.73c0,11.17,9.05,20.22,20.22,20.22h131.73c11.17,0,20.22-9.05,20.22-20.22v-131.73c0-11.17-9.05-20.22-20.22-20.22Zm-33.54,28.82c13.75,0,24.94,11.19,24.94,24.94h-9.48c0-8.53-6.94-15.46-15.46-15.46s-15.46,6.94-15.46,15.46h-9.48c0-13.75,11.19-24.94,24.94-24.94Zm-64.35,0c13.75,0,24.94,11.19,24.94,24.94h-9.48c0-8.53-6.94-15.46-15.46-15.46s-15.46,6.94-15.46,15.46h-9.48c0-13.75,11.19-24.94,24.94-24.94Zm32.17,121.95c-31.73,0-57.46-25.72-57.46-57.46h114.91c0,31.73-25.72,57.46-57.46,57.46Z"/>
</svg>